<mxfile host="app.diagrams.net" modified="2022-10-02T20:02:17.362Z" agent="5.0 (Windows NT 10.0; Win64; x64) AppleWebKit/537.36 (KHTML, like Gecko) Chrome/106.0.0.0 Safari/537.36" etag="rUL-jSdgE9aGCY7NcV37" version="20.4.0" type="github" pages="5">
  <diagram id="6_gQxx-UC2eD5Ze0G_7J" name="Page-1">
    <mxGraphModel dx="2844" dy="1588" grid="1" gridSize="10" guides="1" tooltips="1" connect="1" arrows="1" fold="1" page="1" pageScale="1" pageWidth="850" pageHeight="1100" background="none" math="0" shadow="1">
      <root>
        <mxCell id="0" />
        <mxCell id="1" parent="0" />
        <mxCell id="xzNZf4EtVKxI1Q2xiA5o-7" value="" style="edgeStyle=orthogonalEdgeStyle;rounded=0;orthogonalLoop=1;jettySize=auto;html=1;" parent="1" source="xzNZf4EtVKxI1Q2xiA5o-1" target="xzNZf4EtVKxI1Q2xiA5o-2" edge="1">
          <mxGeometry relative="1" as="geometry" />
        </mxCell>
        <mxCell id="xzNZf4EtVKxI1Q2xiA5o-1" value="Landing" style="rounded=1;whiteSpace=wrap;html=1;" parent="1" vertex="1">
          <mxGeometry x="330" y="40" width="120" height="60" as="geometry" />
        </mxCell>
        <mxCell id="xzNZf4EtVKxI1Q2xiA5o-36" value="" style="group;fontFamily=Verdana;" parent="1" vertex="1" connectable="0">
          <mxGeometry x="290" y="130" width="675" height="380" as="geometry" />
        </mxCell>
        <mxCell id="xzNZf4EtVKxI1Q2xiA5o-34" value="" style="rounded=0;whiteSpace=wrap;html=1;opacity=50;glass=1;fontFamily=Verdana;" parent="xzNZf4EtVKxI1Q2xiA5o-36" vertex="1">
          <mxGeometry width="675" height="380" as="geometry" />
        </mxCell>
        <mxCell id="xzNZf4EtVKxI1Q2xiA5o-2" value="Session already exists" style="rhombus;whiteSpace=wrap;html=1;fontFamily=Verdana;" parent="xzNZf4EtVKxI1Q2xiA5o-36" vertex="1">
          <mxGeometry x="40" y="10" width="120" height="120" as="geometry" />
        </mxCell>
        <mxCell id="xzNZf4EtVKxI1Q2xiA5o-3" value="Sign-In page" style="rounded=1;whiteSpace=wrap;html=1;fontFamily=Verdana;" parent="xzNZf4EtVKxI1Q2xiA5o-36" vertex="1">
          <mxGeometry x="240" y="40" width="120" height="60" as="geometry" />
        </mxCell>
        <mxCell id="xzNZf4EtVKxI1Q2xiA5o-4" style="edgeStyle=orthogonalEdgeStyle;rounded=0;orthogonalLoop=1;jettySize=auto;html=1;fontFamily=Verdana;" parent="xzNZf4EtVKxI1Q2xiA5o-36" source="xzNZf4EtVKxI1Q2xiA5o-2" target="xzNZf4EtVKxI1Q2xiA5o-3" edge="1">
          <mxGeometry relative="1" as="geometry" />
        </mxCell>
        <mxCell id="xzNZf4EtVKxI1Q2xiA5o-6" value="NO" style="edgeLabel;html=1;align=center;verticalAlign=middle;resizable=0;points=[];fontFamily=Verdana;" parent="xzNZf4EtVKxI1Q2xiA5o-4" vertex="1" connectable="0">
          <mxGeometry x="-0.1571" y="-1" relative="1" as="geometry">
            <mxPoint as="offset" />
          </mxGeometry>
        </mxCell>
        <mxCell id="xzNZf4EtVKxI1Q2xiA5o-8" value="User exists" style="rhombus;whiteSpace=wrap;html=1;fontFamily=Verdana;" parent="xzNZf4EtVKxI1Q2xiA5o-36" vertex="1">
          <mxGeometry x="260" y="270" width="80" height="80" as="geometry" />
        </mxCell>
        <mxCell id="xzNZf4EtVKxI1Q2xiA5o-23" style="edgeStyle=orthogonalEdgeStyle;rounded=0;orthogonalLoop=1;jettySize=auto;html=1;entryX=0.5;entryY=0;entryDx=0;entryDy=0;fontFamily=Verdana;" parent="xzNZf4EtVKxI1Q2xiA5o-36" source="xzNZf4EtVKxI1Q2xiA5o-10" target="xzNZf4EtVKxI1Q2xiA5o-8" edge="1">
          <mxGeometry relative="1" as="geometry" />
        </mxCell>
        <mxCell id="xzNZf4EtVKxI1Q2xiA5o-10" value="Sign-in&lt;br&gt;Modal" style="rounded=1;whiteSpace=wrap;html=1;fontFamily=Verdana;" parent="xzNZf4EtVKxI1Q2xiA5o-36" vertex="1">
          <mxGeometry x="240" y="140" width="120" height="60" as="geometry" />
        </mxCell>
        <mxCell id="xzNZf4EtVKxI1Q2xiA5o-21" style="edgeStyle=orthogonalEdgeStyle;rounded=0;orthogonalLoop=1;jettySize=auto;html=1;entryX=0.5;entryY=0;entryDx=0;entryDy=0;fontFamily=Verdana;" parent="xzNZf4EtVKxI1Q2xiA5o-36" source="xzNZf4EtVKxI1Q2xiA5o-3" target="xzNZf4EtVKxI1Q2xiA5o-10" edge="1">
          <mxGeometry relative="1" as="geometry" />
        </mxCell>
        <mxCell id="xzNZf4EtVKxI1Q2xiA5o-13" value="Create New User&lt;br&gt;&lt;b&gt;(SIGN UP)&lt;/b&gt;" style="rounded=1;whiteSpace=wrap;html=1;fontFamily=Verdana;" parent="xzNZf4EtVKxI1Q2xiA5o-36" vertex="1">
          <mxGeometry x="540" y="140" width="120" height="60" as="geometry" />
        </mxCell>
        <mxCell id="xzNZf4EtVKxI1Q2xiA5o-22" style="edgeStyle=orthogonalEdgeStyle;rounded=0;orthogonalLoop=1;jettySize=auto;html=1;entryX=0.575;entryY=-0.033;entryDx=0;entryDy=0;entryPerimeter=0;fontFamily=Verdana;" parent="xzNZf4EtVKxI1Q2xiA5o-36" source="xzNZf4EtVKxI1Q2xiA5o-3" target="xzNZf4EtVKxI1Q2xiA5o-13" edge="1">
          <mxGeometry relative="1" as="geometry" />
        </mxCell>
        <mxCell id="xzNZf4EtVKxI1Q2xiA5o-14" value="" style="edgeStyle=orthogonalEdgeStyle;rounded=0;orthogonalLoop=1;jettySize=auto;html=1;fontFamily=Verdana;" parent="xzNZf4EtVKxI1Q2xiA5o-36" source="xzNZf4EtVKxI1Q2xiA5o-8" target="xzNZf4EtVKxI1Q2xiA5o-13" edge="1">
          <mxGeometry relative="1" as="geometry" />
        </mxCell>
        <mxCell id="xzNZf4EtVKxI1Q2xiA5o-15" value="NO" style="edgeLabel;html=1;align=center;verticalAlign=middle;resizable=0;points=[];fontFamily=Verdana;" parent="xzNZf4EtVKxI1Q2xiA5o-14" vertex="1" connectable="0">
          <mxGeometry x="-0.25" y="-1" relative="1" as="geometry">
            <mxPoint as="offset" />
          </mxGeometry>
        </mxCell>
        <mxCell id="xzNZf4EtVKxI1Q2xiA5o-16" value="Home page" style="rounded=1;whiteSpace=wrap;html=1;fontFamily=Verdana;" parent="xzNZf4EtVKxI1Q2xiA5o-36" vertex="1">
          <mxGeometry x="40" y="280" width="120" height="60" as="geometry" />
        </mxCell>
        <mxCell id="xzNZf4EtVKxI1Q2xiA5o-20" style="edgeStyle=orthogonalEdgeStyle;rounded=0;orthogonalLoop=1;jettySize=auto;html=1;fontFamily=Verdana;" parent="xzNZf4EtVKxI1Q2xiA5o-36" source="xzNZf4EtVKxI1Q2xiA5o-2" target="xzNZf4EtVKxI1Q2xiA5o-16" edge="1">
          <mxGeometry relative="1" as="geometry" />
        </mxCell>
        <mxCell id="xzNZf4EtVKxI1Q2xiA5o-28" style="edgeStyle=orthogonalEdgeStyle;rounded=0;orthogonalLoop=1;jettySize=auto;html=1;entryX=1;entryY=0.5;entryDx=0;entryDy=0;fontFamily=Verdana;" parent="xzNZf4EtVKxI1Q2xiA5o-36" source="xzNZf4EtVKxI1Q2xiA5o-8" target="xzNZf4EtVKxI1Q2xiA5o-16" edge="1">
          <mxGeometry relative="1" as="geometry" />
        </mxCell>
        <mxCell id="xzNZf4EtVKxI1Q2xiA5o-29" value="YES" style="edgeLabel;html=1;align=center;verticalAlign=middle;resizable=0;points=[];fontFamily=Verdana;" parent="xzNZf4EtVKxI1Q2xiA5o-28" vertex="1" connectable="0">
          <mxGeometry x="-0.125" y="1" relative="1" as="geometry">
            <mxPoint as="offset" />
          </mxGeometry>
        </mxCell>
        <mxCell id="xzNZf4EtVKxI1Q2xiA5o-27" style="edgeStyle=orthogonalEdgeStyle;rounded=0;orthogonalLoop=1;jettySize=auto;html=1;fontFamily=Verdana;" parent="xzNZf4EtVKxI1Q2xiA5o-36" source="xzNZf4EtVKxI1Q2xiA5o-25" target="xzNZf4EtVKxI1Q2xiA5o-10" edge="1">
          <mxGeometry relative="1" as="geometry" />
        </mxCell>
        <mxCell id="xzNZf4EtVKxI1Q2xiA5o-25" value="Verify User" style="rounded=1;whiteSpace=wrap;html=1;fontFamily=Verdana;" parent="xzNZf4EtVKxI1Q2xiA5o-36" vertex="1">
          <mxGeometry x="390" y="140" width="120" height="60" as="geometry" />
        </mxCell>
        <mxCell id="xzNZf4EtVKxI1Q2xiA5o-30" style="edgeStyle=orthogonalEdgeStyle;rounded=0;orthogonalLoop=1;jettySize=auto;html=1;entryX=1;entryY=0.5;entryDx=0;entryDy=0;fontFamily=Verdana;" parent="xzNZf4EtVKxI1Q2xiA5o-36" source="xzNZf4EtVKxI1Q2xiA5o-13" target="xzNZf4EtVKxI1Q2xiA5o-25" edge="1">
          <mxGeometry relative="1" as="geometry" />
        </mxCell>
        <mxCell id="xzNZf4EtVKxI1Q2xiA5o-39" value="Sign-In&lt;br&gt;Module" style="text;html=1;strokeColor=none;fillColor=none;align=center;verticalAlign=middle;whiteSpace=wrap;rounded=0;glass=1;fontFamily=Verdana;opacity=50;fontStyle=1;textOpacity=70;" parent="xzNZf4EtVKxI1Q2xiA5o-36" vertex="1">
          <mxGeometry x="600" y="340" width="60" height="30" as="geometry" />
        </mxCell>
        <mxCell id="xzNZf4EtVKxI1Q2xiA5o-40" value="DB" style="strokeWidth=2;html=1;shape=mxgraph.flowchart.database;whiteSpace=wrap;glass=1;fontFamily=Verdana;opacity=50;" parent="xzNZf4EtVKxI1Q2xiA5o-36" vertex="1">
          <mxGeometry x="420" y="240" width="60" height="60" as="geometry" />
        </mxCell>
        <mxCell id="xzNZf4EtVKxI1Q2xiA5o-43" value="" style="endArrow=classic;html=1;rounded=0;fontFamily=Verdana;exitX=0.25;exitY=1;exitDx=0;exitDy=0;" parent="xzNZf4EtVKxI1Q2xiA5o-36" source="xzNZf4EtVKxI1Q2xiA5o-25" target="xzNZf4EtVKxI1Q2xiA5o-40" edge="1">
          <mxGeometry width="50" height="50" relative="1" as="geometry">
            <mxPoint x="410" y="300" as="sourcePoint" />
            <mxPoint x="460" y="250" as="targetPoint" />
          </mxGeometry>
        </mxCell>
        <mxCell id="xzNZf4EtVKxI1Q2xiA5o-44" value="" style="endArrow=classic;html=1;rounded=0;fontFamily=Verdana;exitX=0.756;exitY=0.025;exitDx=0;exitDy=0;entryX=0.75;entryY=1;entryDx=0;entryDy=0;exitPerimeter=0;" parent="xzNZf4EtVKxI1Q2xiA5o-36" source="xzNZf4EtVKxI1Q2xiA5o-40" target="xzNZf4EtVKxI1Q2xiA5o-25" edge="1">
          <mxGeometry width="50" height="50" relative="1" as="geometry">
            <mxPoint x="430" y="210" as="sourcePoint" />
            <mxPoint x="447.1428571428571" y="250" as="targetPoint" />
          </mxGeometry>
        </mxCell>
      </root>
    </mxGraphModel>
  </diagram>
  <diagram id="go-edggqTSdw_r7aBKto" name="Page-2">
    <mxGraphModel dx="1422" dy="794" grid="1" gridSize="10" guides="1" tooltips="1" connect="1" arrows="1" fold="1" page="1" pageScale="1" pageWidth="850" pageHeight="1100" math="0" shadow="0">
      <root>
        <mxCell id="0" />
        <mxCell id="1" parent="0" />
        <mxCell id="ymNYa042TYwZ1ZsmUmXY-24" value="" style="group" vertex="1" connectable="0" parent="1">
          <mxGeometry x="80" y="40" width="640" height="450" as="geometry" />
        </mxCell>
        <mxCell id="ymNYa042TYwZ1ZsmUmXY-22" value="" style="rounded=0;whiteSpace=wrap;html=1;glass=1;fontFamily=Verdana;opacity=50;" vertex="1" parent="ymNYa042TYwZ1ZsmUmXY-24">
          <mxGeometry width="640" height="450" as="geometry" />
        </mxCell>
        <mxCell id="ymNYa042TYwZ1ZsmUmXY-1" value="Profile Manger" style="rounded=1;whiteSpace=wrap;html=1;glass=1;fontFamily=Verdana;opacity=50;" vertex="1" parent="ymNYa042TYwZ1ZsmUmXY-24">
          <mxGeometry x="260" y="10" width="120" height="60" as="geometry" />
        </mxCell>
        <mxCell id="ymNYa042TYwZ1ZsmUmXY-2" value="Change Profile Picture" style="rounded=1;whiteSpace=wrap;html=1;glass=1;fontFamily=Verdana;opacity=50;" vertex="1" parent="ymNYa042TYwZ1ZsmUmXY-24">
          <mxGeometry x="40" y="130" width="120" height="60" as="geometry" />
        </mxCell>
        <mxCell id="ymNYa042TYwZ1ZsmUmXY-3" style="edgeStyle=orthogonalEdgeStyle;rounded=0;orthogonalLoop=1;jettySize=auto;html=1;exitX=0;exitY=0.5;exitDx=0;exitDy=0;entryX=0.5;entryY=0;entryDx=0;entryDy=0;fontFamily=Verdana;" edge="1" parent="ymNYa042TYwZ1ZsmUmXY-24" source="ymNYa042TYwZ1ZsmUmXY-1" target="ymNYa042TYwZ1ZsmUmXY-2">
          <mxGeometry relative="1" as="geometry" />
        </mxCell>
        <mxCell id="ymNYa042TYwZ1ZsmUmXY-4" value="Save changes" style="rounded=1;whiteSpace=wrap;html=1;glass=1;fontFamily=Verdana;opacity=50;" vertex="1" parent="ymNYa042TYwZ1ZsmUmXY-24">
          <mxGeometry x="120" y="280" width="120" height="60" as="geometry" />
        </mxCell>
        <mxCell id="ymNYa042TYwZ1ZsmUmXY-5" value="Discard changes" style="rounded=1;whiteSpace=wrap;html=1;glass=1;fontFamily=Verdana;opacity=50;" vertex="1" parent="ymNYa042TYwZ1ZsmUmXY-24">
          <mxGeometry x="400" y="280" width="120" height="60" as="geometry" />
        </mxCell>
        <mxCell id="ymNYa042TYwZ1ZsmUmXY-6" value="Redirect to home page" style="rounded=1;whiteSpace=wrap;html=1;glass=1;fontFamily=Verdana;opacity=50;" vertex="1" parent="ymNYa042TYwZ1ZsmUmXY-24">
          <mxGeometry x="260" y="380" width="120" height="60" as="geometry" />
        </mxCell>
        <mxCell id="ymNYa042TYwZ1ZsmUmXY-9" style="edgeStyle=orthogonalEdgeStyle;rounded=0;orthogonalLoop=1;jettySize=auto;html=1;entryX=0.25;entryY=0;entryDx=0;entryDy=0;fontFamily=Verdana;" edge="1" parent="ymNYa042TYwZ1ZsmUmXY-24" source="ymNYa042TYwZ1ZsmUmXY-4" target="ymNYa042TYwZ1ZsmUmXY-6">
          <mxGeometry relative="1" as="geometry" />
        </mxCell>
        <mxCell id="ymNYa042TYwZ1ZsmUmXY-11" style="edgeStyle=orthogonalEdgeStyle;rounded=0;orthogonalLoop=1;jettySize=auto;html=1;entryX=0.75;entryY=0;entryDx=0;entryDy=0;fontFamily=Verdana;" edge="1" parent="ymNYa042TYwZ1ZsmUmXY-24" source="ymNYa042TYwZ1ZsmUmXY-5" target="ymNYa042TYwZ1ZsmUmXY-6">
          <mxGeometry relative="1" as="geometry" />
        </mxCell>
        <mxCell id="ymNYa042TYwZ1ZsmUmXY-12" value="Privacy settings" style="rounded=1;whiteSpace=wrap;html=1;glass=1;fontFamily=Verdana;opacity=50;" vertex="1" parent="ymNYa042TYwZ1ZsmUmXY-24">
          <mxGeometry x="260" y="130" width="120" height="60" as="geometry" />
        </mxCell>
        <mxCell id="ymNYa042TYwZ1ZsmUmXY-13" style="edgeStyle=orthogonalEdgeStyle;rounded=0;orthogonalLoop=1;jettySize=auto;html=1;fontFamily=Verdana;" edge="1" parent="ymNYa042TYwZ1ZsmUmXY-24" source="ymNYa042TYwZ1ZsmUmXY-1" target="ymNYa042TYwZ1ZsmUmXY-12">
          <mxGeometry relative="1" as="geometry" />
        </mxCell>
        <mxCell id="ymNYa042TYwZ1ZsmUmXY-14" value="Change password" style="rounded=1;whiteSpace=wrap;html=1;glass=1;fontFamily=Verdana;opacity=50;" vertex="1" parent="ymNYa042TYwZ1ZsmUmXY-24">
          <mxGeometry x="480" y="130" width="120" height="60" as="geometry" />
        </mxCell>
        <mxCell id="ymNYa042TYwZ1ZsmUmXY-15" style="edgeStyle=orthogonalEdgeStyle;rounded=0;orthogonalLoop=1;jettySize=auto;html=1;entryX=0.5;entryY=0;entryDx=0;entryDy=0;fontFamily=Verdana;" edge="1" parent="ymNYa042TYwZ1ZsmUmXY-24" source="ymNYa042TYwZ1ZsmUmXY-1" target="ymNYa042TYwZ1ZsmUmXY-14">
          <mxGeometry relative="1" as="geometry" />
        </mxCell>
        <mxCell id="ymNYa042TYwZ1ZsmUmXY-20" style="edgeStyle=orthogonalEdgeStyle;rounded=0;orthogonalLoop=1;jettySize=auto;html=1;exitX=0;exitY=1;exitDx=0;exitDy=0;entryX=1;entryY=0.25;entryDx=0;entryDy=0;fontFamily=Verdana;" edge="1" parent="ymNYa042TYwZ1ZsmUmXY-24" source="ymNYa042TYwZ1ZsmUmXY-16" target="ymNYa042TYwZ1ZsmUmXY-4">
          <mxGeometry relative="1" as="geometry" />
        </mxCell>
        <mxCell id="ymNYa042TYwZ1ZsmUmXY-21" style="edgeStyle=orthogonalEdgeStyle;rounded=0;orthogonalLoop=1;jettySize=auto;html=1;exitX=1;exitY=1;exitDx=0;exitDy=0;entryX=0;entryY=0.25;entryDx=0;entryDy=0;fontFamily=Verdana;" edge="1" parent="ymNYa042TYwZ1ZsmUmXY-24" source="ymNYa042TYwZ1ZsmUmXY-16" target="ymNYa042TYwZ1ZsmUmXY-5">
          <mxGeometry relative="1" as="geometry" />
        </mxCell>
        <mxCell id="ymNYa042TYwZ1ZsmUmXY-16" value="" style="rhombus;whiteSpace=wrap;html=1;glass=1;fontFamily=Verdana;opacity=50;" vertex="1" parent="ymNYa042TYwZ1ZsmUmXY-24">
          <mxGeometry x="280" y="210" width="80" height="80" as="geometry" />
        </mxCell>
        <mxCell id="ymNYa042TYwZ1ZsmUmXY-19" style="edgeStyle=orthogonalEdgeStyle;rounded=0;orthogonalLoop=1;jettySize=auto;html=1;entryX=0;entryY=0.5;entryDx=0;entryDy=0;fontFamily=Verdana;" edge="1" parent="ymNYa042TYwZ1ZsmUmXY-24" source="ymNYa042TYwZ1ZsmUmXY-2" target="ymNYa042TYwZ1ZsmUmXY-16">
          <mxGeometry relative="1" as="geometry" />
        </mxCell>
        <mxCell id="ymNYa042TYwZ1ZsmUmXY-17" style="edgeStyle=orthogonalEdgeStyle;rounded=0;orthogonalLoop=1;jettySize=auto;html=1;entryX=0.5;entryY=0;entryDx=0;entryDy=0;fontFamily=Verdana;" edge="1" parent="ymNYa042TYwZ1ZsmUmXY-24" source="ymNYa042TYwZ1ZsmUmXY-12" target="ymNYa042TYwZ1ZsmUmXY-16">
          <mxGeometry relative="1" as="geometry" />
        </mxCell>
        <mxCell id="ymNYa042TYwZ1ZsmUmXY-18" style="edgeStyle=orthogonalEdgeStyle;rounded=0;orthogonalLoop=1;jettySize=auto;html=1;entryX=1;entryY=0.5;entryDx=0;entryDy=0;fontFamily=Verdana;" edge="1" parent="ymNYa042TYwZ1ZsmUmXY-24" source="ymNYa042TYwZ1ZsmUmXY-14" target="ymNYa042TYwZ1ZsmUmXY-16">
          <mxGeometry relative="1" as="geometry" />
        </mxCell>
        <mxCell id="ymNYa042TYwZ1ZsmUmXY-23" value="&lt;b&gt;Manage Profile&lt;/b&gt;" style="text;html=1;strokeColor=none;fillColor=none;align=center;verticalAlign=middle;whiteSpace=wrap;rounded=0;glass=1;fontFamily=Verdana;opacity=50;textOpacity=70;" vertex="1" parent="ymNYa042TYwZ1ZsmUmXY-24">
          <mxGeometry x="540" y="400" width="60" height="30" as="geometry" />
        </mxCell>
      </root>
    </mxGraphModel>
  </diagram>
  <diagram id="B_VHI7v7nCGi40btu5HL" name="Page-3">
    <mxGraphModel dx="1422" dy="794" grid="1" gridSize="10" guides="1" tooltips="1" connect="1" arrows="1" fold="1" page="1" pageScale="1" pageWidth="850" pageHeight="1100" math="0" shadow="0">
      <root>
        <mxCell id="0" />
        <mxCell id="1" parent="0" />
        <mxCell id="ZpELvM_m6XN118u5F2rE-11" value="" style="group" vertex="1" connectable="0" parent="1">
          <mxGeometry x="220" y="340" width="420" height="390" as="geometry" />
        </mxCell>
        <mxCell id="ZpELvM_m6XN118u5F2rE-9" value="" style="rounded=0;whiteSpace=wrap;html=1;glass=1;fontFamily=Verdana;opacity=50;" vertex="1" parent="ZpELvM_m6XN118u5F2rE-11">
          <mxGeometry width="420" height="390" as="geometry" />
        </mxCell>
        <mxCell id="ZpELvM_m6XN118u5F2rE-1" value="Add Expense" style="rounded=1;whiteSpace=wrap;html=1;glass=1;fontFamily=Verdana;opacity=50;" vertex="1" parent="ZpELvM_m6XN118u5F2rE-11">
          <mxGeometry x="145" y="20" width="120" height="60" as="geometry" />
        </mxCell>
        <mxCell id="ZpELvM_m6XN118u5F2rE-2" value="Save / Discard" style="rhombus;whiteSpace=wrap;html=1;glass=1;fontFamily=Verdana;opacity=50;" vertex="1" parent="ZpELvM_m6XN118u5F2rE-11">
          <mxGeometry x="165" y="140" width="80" height="80" as="geometry" />
        </mxCell>
        <mxCell id="ZpELvM_m6XN118u5F2rE-6" style="edgeStyle=orthogonalEdgeStyle;rounded=0;orthogonalLoop=1;jettySize=auto;html=1;entryX=0.5;entryY=0;entryDx=0;entryDy=0;fontFamily=Verdana;" edge="1" parent="ZpELvM_m6XN118u5F2rE-11" source="ZpELvM_m6XN118u5F2rE-1" target="ZpELvM_m6XN118u5F2rE-2">
          <mxGeometry relative="1" as="geometry" />
        </mxCell>
        <mxCell id="ZpELvM_m6XN118u5F2rE-3" value="DB&lt;br&gt;" style="strokeWidth=2;html=1;shape=mxgraph.flowchart.database;whiteSpace=wrap;glass=1;fontFamily=Verdana;opacity=50;" vertex="1" parent="ZpELvM_m6XN118u5F2rE-11">
          <mxGeometry x="30" y="150" width="60" height="60" as="geometry" />
        </mxCell>
        <mxCell id="ZpELvM_m6XN118u5F2rE-5" value="SAVE" style="endArrow=classic;startArrow=classic;html=1;rounded=0;fontFamily=Verdana;entryX=0;entryY=0.5;entryDx=0;entryDy=0;exitX=1;exitY=0.5;exitDx=0;exitDy=0;exitPerimeter=0;" edge="1" parent="ZpELvM_m6XN118u5F2rE-11" source="ZpELvM_m6XN118u5F2rE-3" target="ZpELvM_m6XN118u5F2rE-2">
          <mxGeometry width="50" height="50" relative="1" as="geometry">
            <mxPoint x="110" y="210" as="sourcePoint" />
            <mxPoint x="160" y="160" as="targetPoint" />
          </mxGeometry>
        </mxCell>
        <mxCell id="ZpELvM_m6XN118u5F2rE-7" value="Redirect to Previous page" style="whiteSpace=wrap;html=1;fontFamily=Verdana;glass=1;opacity=50;" vertex="1" parent="ZpELvM_m6XN118u5F2rE-11">
          <mxGeometry x="145" y="310" width="120" height="60" as="geometry" />
        </mxCell>
        <mxCell id="ZpELvM_m6XN118u5F2rE-8" value="" style="edgeStyle=orthogonalEdgeStyle;rounded=0;orthogonalLoop=1;jettySize=auto;html=1;fontFamily=Verdana;" edge="1" parent="ZpELvM_m6XN118u5F2rE-11" source="ZpELvM_m6XN118u5F2rE-2" target="ZpELvM_m6XN118u5F2rE-7">
          <mxGeometry relative="1" as="geometry" />
        </mxCell>
        <mxCell id="ZpELvM_m6XN118u5F2rE-10" value="&lt;b&gt;Add Expense&lt;/b&gt;" style="text;html=1;strokeColor=none;fillColor=none;align=center;verticalAlign=middle;whiteSpace=wrap;rounded=0;glass=1;fontFamily=Verdana;opacity=70;textOpacity=70;" vertex="1" parent="ZpELvM_m6XN118u5F2rE-11">
          <mxGeometry x="330" y="340" width="60" height="30" as="geometry" />
        </mxCell>
      </root>
    </mxGraphModel>
  </diagram>
  <diagram id="T4yPqO6SCN2527xactjN" name="Page-4">
    <mxGraphModel dx="1422" dy="794" grid="1" gridSize="10" guides="1" tooltips="1" connect="1" arrows="1" fold="1" page="1" pageScale="1" pageWidth="850" pageHeight="1100" math="0" shadow="0">
      <root>
        <mxCell id="0" />
        <mxCell id="1" parent="0" />
        <mxCell id="Z7YbYV1IMeQdWRufuRgn-1" value="" style="group" vertex="1" connectable="0" parent="1">
          <mxGeometry x="240" y="320" width="420" height="390" as="geometry" />
        </mxCell>
        <mxCell id="Z7YbYV1IMeQdWRufuRgn-2" value="" style="rounded=0;whiteSpace=wrap;html=1;glass=1;fontFamily=Verdana;opacity=50;" vertex="1" parent="Z7YbYV1IMeQdWRufuRgn-1">
          <mxGeometry width="420" height="390" as="geometry" />
        </mxCell>
        <mxCell id="Z7YbYV1IMeQdWRufuRgn-14" value="" style="edgeStyle=orthogonalEdgeStyle;rounded=0;orthogonalLoop=1;jettySize=auto;html=1;fontFamily=Verdana;" edge="1" parent="Z7YbYV1IMeQdWRufuRgn-1" source="Z7YbYV1IMeQdWRufuRgn-3" target="Z7YbYV1IMeQdWRufuRgn-11">
          <mxGeometry relative="1" as="geometry" />
        </mxCell>
        <mxCell id="Z7YbYV1IMeQdWRufuRgn-3" value="Create Group" style="rounded=1;whiteSpace=wrap;html=1;glass=1;fontFamily=Verdana;opacity=50;" vertex="1" parent="Z7YbYV1IMeQdWRufuRgn-1">
          <mxGeometry x="145" y="20" width="120" height="60" as="geometry" />
        </mxCell>
        <mxCell id="Z7YbYV1IMeQdWRufuRgn-4" value="Save / Discard" style="rhombus;whiteSpace=wrap;html=1;glass=1;fontFamily=Verdana;opacity=50;" vertex="1" parent="Z7YbYV1IMeQdWRufuRgn-1">
          <mxGeometry x="165" y="200" width="80" height="80" as="geometry" />
        </mxCell>
        <mxCell id="Z7YbYV1IMeQdWRufuRgn-6" value="DB&lt;br&gt;" style="strokeWidth=2;html=1;shape=mxgraph.flowchart.database;whiteSpace=wrap;glass=1;fontFamily=Verdana;opacity=50;" vertex="1" parent="Z7YbYV1IMeQdWRufuRgn-1">
          <mxGeometry x="10" y="210" width="60" height="60" as="geometry" />
        </mxCell>
        <mxCell id="Z7YbYV1IMeQdWRufuRgn-7" value="SAVE" style="endArrow=classic;startArrow=classic;html=1;rounded=0;fontFamily=Verdana;entryX=0;entryY=0.5;entryDx=0;entryDy=0;exitX=1;exitY=0.5;exitDx=0;exitDy=0;exitPerimeter=0;" edge="1" parent="Z7YbYV1IMeQdWRufuRgn-1" source="Z7YbYV1IMeQdWRufuRgn-6" target="Z7YbYV1IMeQdWRufuRgn-4">
          <mxGeometry width="50" height="50" relative="1" as="geometry">
            <mxPoint x="110" y="210" as="sourcePoint" />
            <mxPoint x="160" y="160" as="targetPoint" />
          </mxGeometry>
        </mxCell>
        <mxCell id="Z7YbYV1IMeQdWRufuRgn-8" value="Redirect to Previous page" style="whiteSpace=wrap;html=1;fontFamily=Verdana;glass=1;opacity=50;" vertex="1" parent="Z7YbYV1IMeQdWRufuRgn-1">
          <mxGeometry x="145" y="310" width="120" height="60" as="geometry" />
        </mxCell>
        <mxCell id="Z7YbYV1IMeQdWRufuRgn-9" value="" style="edgeStyle=orthogonalEdgeStyle;rounded=0;orthogonalLoop=1;jettySize=auto;html=1;fontFamily=Verdana;" edge="1" parent="Z7YbYV1IMeQdWRufuRgn-1" source="Z7YbYV1IMeQdWRufuRgn-4" target="Z7YbYV1IMeQdWRufuRgn-8">
          <mxGeometry relative="1" as="geometry" />
        </mxCell>
        <mxCell id="Z7YbYV1IMeQdWRufuRgn-10" value="&lt;b&gt;Create Group&lt;/b&gt;" style="text;html=1;strokeColor=none;fillColor=none;align=center;verticalAlign=middle;whiteSpace=wrap;rounded=0;glass=1;fontFamily=Verdana;opacity=70;textOpacity=70;" vertex="1" parent="Z7YbYV1IMeQdWRufuRgn-1">
          <mxGeometry x="330" y="340" width="60" height="30" as="geometry" />
        </mxCell>
        <mxCell id="Z7YbYV1IMeQdWRufuRgn-18" style="edgeStyle=orthogonalEdgeStyle;rounded=0;orthogonalLoop=1;jettySize=auto;html=1;entryX=0.5;entryY=0;entryDx=0;entryDy=0;entryPerimeter=0;fontFamily=Verdana;startArrow=classic;startFill=1;" edge="1" parent="Z7YbYV1IMeQdWRufuRgn-1" source="Z7YbYV1IMeQdWRufuRgn-11" target="Z7YbYV1IMeQdWRufuRgn-6">
          <mxGeometry relative="1" as="geometry" />
        </mxCell>
        <mxCell id="Z7YbYV1IMeQdWRufuRgn-23" style="edgeStyle=orthogonalEdgeStyle;rounded=0;orthogonalLoop=1;jettySize=auto;html=1;entryX=0.5;entryY=0;entryDx=0;entryDy=0;fontFamily=Verdana;startArrow=none;startFill=0;endArrow=classic;endFill=1;" edge="1" parent="Z7YbYV1IMeQdWRufuRgn-1" source="Z7YbYV1IMeQdWRufuRgn-11" target="Z7YbYV1IMeQdWRufuRgn-4">
          <mxGeometry relative="1" as="geometry" />
        </mxCell>
        <mxCell id="Z7YbYV1IMeQdWRufuRgn-11" value="Add Members" style="rounded=1;whiteSpace=wrap;html=1;glass=1;fontFamily=Verdana;opacity=70;" vertex="1" parent="Z7YbYV1IMeQdWRufuRgn-1">
          <mxGeometry x="145" y="110" width="120" height="60" as="geometry" />
        </mxCell>
      </root>
    </mxGraphModel>
  </diagram>
  <diagram id="XKpf-GRvU28gBMZIsGTx" name="Page-5">
    <mxGraphModel dx="2370" dy="1323" grid="1" gridSize="10" guides="1" tooltips="1" connect="1" arrows="1" fold="1" page="1" pageScale="1" pageWidth="850" pageHeight="1100" math="0" shadow="0">
      <root>
        <mxCell id="0" />
        <mxCell id="1" parent="0" />
        <mxCell id="w1DF7AycLo7e3F-8Y6F1-23" value="" style="group" vertex="1" connectable="0" parent="1">
          <mxGeometry x="170" y="260" width="510" height="580" as="geometry" />
        </mxCell>
        <mxCell id="w1DF7AycLo7e3F-8Y6F1-20" value="" style="rounded=0;whiteSpace=wrap;html=1;glass=1;fontFamily=Verdana;opacity=70;shadow=0;" vertex="1" parent="w1DF7AycLo7e3F-8Y6F1-23">
          <mxGeometry width="510" height="580" as="geometry" />
        </mxCell>
        <mxCell id="w1DF7AycLo7e3F-8Y6F1-19" value="" style="group" vertex="1" connectable="0" parent="w1DF7AycLo7e3F-8Y6F1-23">
          <mxGeometry x="50" y="30" width="410" height="500" as="geometry" />
        </mxCell>
        <mxCell id="w1DF7AycLo7e3F-8Y6F1-1" value="Settle Expenses" style="rounded=1;whiteSpace=wrap;html=1;glass=1;fontFamily=Verdana;opacity=70;" vertex="1" parent="w1DF7AycLo7e3F-8Y6F1-19">
          <mxGeometry width="120" height="60" as="geometry" />
        </mxCell>
        <mxCell id="w1DF7AycLo7e3F-8Y6F1-2" value="Transaction API" style="shape=process;whiteSpace=wrap;html=1;backgroundOutline=1;glass=1;fontFamily=Verdana;opacity=70;" vertex="1" parent="w1DF7AycLo7e3F-8Y6F1-19">
          <mxGeometry x="240" width="120" height="60" as="geometry" />
        </mxCell>
        <mxCell id="w1DF7AycLo7e3F-8Y6F1-3" style="edgeStyle=orthogonalEdgeStyle;rounded=0;orthogonalLoop=1;jettySize=auto;html=1;entryX=0;entryY=0.5;entryDx=0;entryDy=0;fontFamily=Verdana;startArrow=classic;startFill=1;endArrow=classic;endFill=1;" edge="1" parent="w1DF7AycLo7e3F-8Y6F1-19" source="w1DF7AycLo7e3F-8Y6F1-1" target="w1DF7AycLo7e3F-8Y6F1-2">
          <mxGeometry relative="1" as="geometry" />
        </mxCell>
        <mxCell id="w1DF7AycLo7e3F-8Y6F1-4" value="Transaction&lt;br&gt;Status" style="rhombus;whiteSpace=wrap;html=1;glass=1;fontFamily=Verdana;opacity=70;" vertex="1" parent="w1DF7AycLo7e3F-8Y6F1-19">
          <mxGeometry x="10" y="110" width="100" height="100" as="geometry" />
        </mxCell>
        <mxCell id="w1DF7AycLo7e3F-8Y6F1-5" style="edgeStyle=orthogonalEdgeStyle;rounded=0;orthogonalLoop=1;jettySize=auto;html=1;entryX=0.5;entryY=0;entryDx=0;entryDy=0;fontFamily=Verdana;startArrow=none;startFill=0;endArrow=classic;endFill=1;" edge="1" parent="w1DF7AycLo7e3F-8Y6F1-19" source="w1DF7AycLo7e3F-8Y6F1-1" target="w1DF7AycLo7e3F-8Y6F1-4">
          <mxGeometry relative="1" as="geometry" />
        </mxCell>
        <mxCell id="w1DF7AycLo7e3F-8Y6F1-8" value="DB" style="strokeWidth=2;html=1;shape=mxgraph.flowchart.database;whiteSpace=wrap;glass=1;fontFamily=Verdana;opacity=70;" vertex="1" parent="w1DF7AycLo7e3F-8Y6F1-19">
          <mxGeometry x="30" y="250" width="60" height="60" as="geometry" />
        </mxCell>
        <mxCell id="w1DF7AycLo7e3F-8Y6F1-9" style="edgeStyle=orthogonalEdgeStyle;rounded=0;orthogonalLoop=1;jettySize=auto;html=1;entryX=0.5;entryY=0;entryDx=0;entryDy=0;entryPerimeter=0;fontFamily=Verdana;startArrow=none;startFill=0;endArrow=classic;endFill=1;" edge="1" parent="w1DF7AycLo7e3F-8Y6F1-19" source="w1DF7AycLo7e3F-8Y6F1-4" target="w1DF7AycLo7e3F-8Y6F1-8">
          <mxGeometry relative="1" as="geometry">
            <Array as="points">
              <mxPoint x="60" y="230" />
              <mxPoint x="60" y="230" />
            </Array>
          </mxGeometry>
        </mxCell>
        <mxCell id="w1DF7AycLo7e3F-8Y6F1-18" value="SUCCESS" style="edgeLabel;html=1;align=center;verticalAlign=middle;resizable=0;points=[];fontFamily=Verdana;" vertex="1" connectable="0" parent="w1DF7AycLo7e3F-8Y6F1-9">
          <mxGeometry x="-0.275" relative="1" as="geometry">
            <mxPoint as="offset" />
          </mxGeometry>
        </mxCell>
        <mxCell id="w1DF7AycLo7e3F-8Y6F1-10" value="Show success message and settled up message" style="rounded=1;whiteSpace=wrap;html=1;glass=1;fontFamily=Verdana;opacity=70;" vertex="1" parent="w1DF7AycLo7e3F-8Y6F1-19">
          <mxGeometry y="330" width="120" height="60" as="geometry" />
        </mxCell>
        <mxCell id="w1DF7AycLo7e3F-8Y6F1-11" style="edgeStyle=orthogonalEdgeStyle;rounded=0;orthogonalLoop=1;jettySize=auto;html=1;entryX=0.5;entryY=0;entryDx=0;entryDy=0;fontFamily=Verdana;startArrow=none;startFill=0;endArrow=classic;endFill=1;" edge="1" parent="w1DF7AycLo7e3F-8Y6F1-19" source="w1DF7AycLo7e3F-8Y6F1-8" target="w1DF7AycLo7e3F-8Y6F1-10">
          <mxGeometry relative="1" as="geometry" />
        </mxCell>
        <mxCell id="w1DF7AycLo7e3F-8Y6F1-12" value="Navigate back to group expenses page" style="rounded=1;whiteSpace=wrap;html=1;glass=1;fontFamily=Verdana;opacity=70;" vertex="1" parent="w1DF7AycLo7e3F-8Y6F1-19">
          <mxGeometry y="440" width="120" height="60" as="geometry" />
        </mxCell>
        <mxCell id="w1DF7AycLo7e3F-8Y6F1-13" style="edgeStyle=orthogonalEdgeStyle;rounded=0;orthogonalLoop=1;jettySize=auto;html=1;entryX=0.5;entryY=0;entryDx=0;entryDy=0;fontFamily=Verdana;startArrow=none;startFill=0;endArrow=classic;endFill=1;" edge="1" parent="w1DF7AycLo7e3F-8Y6F1-19" source="w1DF7AycLo7e3F-8Y6F1-10" target="w1DF7AycLo7e3F-8Y6F1-12">
          <mxGeometry relative="1" as="geometry" />
        </mxCell>
        <mxCell id="w1DF7AycLo7e3F-8Y6F1-15" style="edgeStyle=orthogonalEdgeStyle;rounded=0;orthogonalLoop=1;jettySize=auto;html=1;fontFamily=Verdana;startArrow=none;startFill=0;endArrow=classic;endFill=1;entryX=1;entryY=0.5;entryDx=0;entryDy=0;" edge="1" parent="w1DF7AycLo7e3F-8Y6F1-19" target="w1DF7AycLo7e3F-8Y6F1-12">
          <mxGeometry relative="1" as="geometry">
            <mxPoint x="260" y="550" as="targetPoint" />
            <mxPoint x="110" y="160" as="sourcePoint" />
            <Array as="points">
              <mxPoint x="260" y="160" />
              <mxPoint x="260" y="470" />
            </Array>
          </mxGeometry>
        </mxCell>
        <mxCell id="w1DF7AycLo7e3F-8Y6F1-17" value="FAILED" style="edgeLabel;html=1;align=center;verticalAlign=middle;resizable=0;points=[];fontFamily=Verdana;" vertex="1" connectable="0" parent="w1DF7AycLo7e3F-8Y6F1-15">
          <mxGeometry x="-0.1469" relative="1" as="geometry">
            <mxPoint as="offset" />
          </mxGeometry>
        </mxCell>
        <mxCell id="w1DF7AycLo7e3F-8Y6F1-21" value="&lt;b&gt;Settle-up Expenses&lt;/b&gt;" style="text;html=1;strokeColor=none;fillColor=none;align=center;verticalAlign=middle;whiteSpace=wrap;rounded=0;shadow=0;glass=1;fontFamily=Verdana;opacity=70;textOpacity=70;" vertex="1" parent="w1DF7AycLo7e3F-8Y6F1-19">
          <mxGeometry x="330" y="470" width="60" height="30" as="geometry" />
        </mxCell>
      </root>
    </mxGraphModel>
  </diagram>
</mxfile>
